# xmcd CD database file
#
# Track frame offsets:
#	150
#	75665
#	108962
#	128407
#	172122
#	187505
#	223245
#	256352
#	276770
#
# Disc length: 4143 seconds
#
# Revision: 0
# Processed by: cddbd v1.5.2PL0 Copyright (c) Steve Scherf et al.
# Submitted via: CDex 1.51
#
DISCID=74102d09
DTITLE=wayne peet trio - fully engulfed
DYEAR=1994
DGENRE=Jazz
TTITLE0=hearing test
TTITLE1=visions
TTITLE2=fully engulfed
TTITLE3=bucket of shade
TTITLE4=fred attack
TTITLE5=the healing factor
TTITLE6=i'm tellin' ya
TTITLE7=bonkin' with nebbie
TTITLE8=inner funkdom
EXTD=YEAR: 1994
EXTT0=
EXTT1=
EXTT2=
EXTT3=
EXTT4=
EXTT5=
EXTT6=
EXTT7=
EXTT8=
PLAYORDER=
